<svg xmlns="http://www.w3.org/2000/svg" viewBox="0 0 1000 1000" enable-background="new 0 0 1000 1000" xml:space="preserve">
<metadata> Svg Vector Icons : http://www.onlinewebfonts.com/icon </metadata>
<g><g><path d="M914.6,573V460H990V573H914.6z M914.6,311.5H990v113.1h-75.4V311.5z M914.6,160.8H990v113.1h-75.4V160.8z M801.5,990H123.1c-41.6,0-75.4-33.8-75.4-75.4h18.8c31.2,0,56.5-25.3,56.5-56.5s-25.3-56.5-56.5-56.5H47.7v-37.7h18.8c31.2,0,56.5-25.3,56.5-56.5s-25.3-56.5-56.5-56.5H47.7v-37.7h18.8c31.2,0,56.5-25.3,56.5-56.5c0-31.2-25.3-56.5-56.5-56.5H47.7v-37.7h18.8c31.2,0,56.5-25.3,56.5-56.5c0-31.2-25.3-56.5-56.5-56.5H47.7v-37.7h18.8c31.2,0,56.5-25.3,56.5-56.5s-25.3-56.5-56.5-56.5H47.7V85.4c0-41.6,33.8-75.4,75.4-75.4h678.5c27.8,0,51.9,15.2,64.9,37.7H123.1c-20.8,0-37.7,16.8-37.7,37.7c0,20.8,16.8,37.7,37.7,37.7h753.8v791.5C876.9,956.2,843.2,990,801.5,990z M481.2,257.3c-45.5,0-82.5,48.5-82.5,108.4s36.9,108.4,82.5,108.4s82.5-48.5,82.5-108.4S526.7,257.3,481.2,257.3z M612.7,525.9c-20.3-13.5-78.8-22.5-78.8-22.5s-37.9,40.5-54,40.5c-16.1,0-54.1-40.5-54.1-40.5s-58.5,9-78.8,22.5c-20.3,13.5-29.3,85.2-29.3,85.2h324.7C642.5,611.1,636.6,541.8,612.7,525.9L612.7,525.9z M85.4,255c0,10.4-8.4,18.8-18.8,18.8H28.8c-10.4,0-18.8-8.4-18.8-18.8s8.4-18.8,18.8-18.8h37.7C76.9,236.2,85.4,244.6,85.4,255z M28.8,386.9h37.7c10.4,0,18.8,8.4,18.8,18.8c0,10.4-8.4,18.8-18.8,18.8H28.8c-10.4,0-18.8-8.4-18.8-18.8C10,395.4,18.4,386.9,28.8,386.9z M28.8,537.7h37.7c10.4,0,18.8,8.4,18.8,18.8c0,10.4-8.4,18.8-18.8,18.8H28.8c-10.4,0-18.8-8.4-18.8-18.8C10,546.1,18.4,537.7,28.8,537.7z M28.8,688.5h37.7c10.4,0,18.8,8.4,18.8,18.8s-8.4,18.8-18.8,18.8H28.8c-10.4,0-18.8-8.4-18.8-18.8S18.4,688.5,28.8,688.5z M28.8,839.2h37.7c10.4,0,18.8,8.4,18.8,18.8s-8.4,18.8-18.8,18.8H28.8c-10.4,0-18.8-8.4-18.8-18.8S18.4,839.2,28.8,839.2z"/></g></g>
</svg>